<svg width="1017" height="394" viewBox="0 0 1017 394" fill="none" xmlns="http://www.w3.org/2000/svg">
<path fill-rule="evenodd" clip-rule="evenodd" d="M100.5 201.004C52 192.504 0 219.504 0 219.504C0 219.504 35 212.504 55.5 233.004C68.9886 246.493 138.366 249.554 175.286 251.183C182.181 251.487 187.945 251.741 192 252.004C221.843 252.862 237.295 249.258 246.393 247.136C254.671 245.205 257.689 244.502 261.5 249.504C242.91 255.733 226.632 260.844 213.115 265.089C157.191 282.648 148.532 285.367 219 291.004C143 293.004 137 315.004 275 306.004L88 328.504C94.1057 334.875 107.366 332.864 122.895 330.509C136.615 328.428 152.106 326.079 166 329.004C187.745 333.582 205.633 346.383 223.801 359.383C253.257 380.461 283.447 402.065 332 390.004C312 390.004 316.5 359.004 387 337.004C389.592 329.062 363.209 330.177 348.552 330.797C342.076 331.071 337.889 331.248 339.5 330.504C353.483 324.051 367.559 324.724 381.607 325.395C400.211 326.285 418.768 327.172 437 311.504C443.095 306.266 401.947 304.876 364.15 303.599C343.532 302.902 323.912 302.24 313.5 301.004C313.358 300.294 320.254 299.899 329.856 299.349C347.291 298.35 373.65 296.841 383 292.004C395.341 277.001 410.13 271.234 422.687 266.337C436.075 261.117 446.925 256.885 449.565 243.504C449.684 230.142 426.622 222.133 385.5 225.504C387.477 203.366 427.273 211.755 460.654 218.791C469.493 220.654 477.882 222.423 485 223.504C468.953 221.011 451.546 214.975 433.778 208.813C394.525 195.199 353.511 180.975 321.5 203.004C326.3 189.804 360.167 170.504 376.5 162.504C369.235 149.296 346.5 147.504 328 151.004C317.353 153.019 307.009 159.281 299.662 163.73C296.467 165.664 293.84 167.255 292 168.004C296.959 163.045 301.384 157.596 305.707 152.272C321.868 132.37 336.602 114.225 372.5 130.004C315.3 97.2042 324.667 74.3375 336.5 67.0042C343.238 65.4188 351.39 73.1804 360.955 82.2881C375.524 96.1595 393.372 113.153 414.5 105.004C380 96.5042 362.5 74.0042 350.5 42.0042C346.161 30.4325 339.467 20.4091 334.023 12.2553C331.164 7.97394 328.649 4.20805 327 1.00418C295.699 -6.12057 283.264 26.2325 274.65 48.6458C273.18 52.4697 271.822 56.0042 270.5 59.004C203 19.004 199.167 84.504 206.5 121.004C178.5 108.604 155.833 137.171 148 153.004C123.892 138.846 111.499 173.009 104.993 190.944C102.998 196.444 101.556 200.417 100.5 201.004Z" fill="#FFDF94"/>
<path d="M440 106.004C444 69.6041 409 44.5042 391 48.5042C363.192 17.6736 342.873 4.61719 327 1.00418C328.649 4.20805 331.164 7.97394 334.023 12.2553C339.467 20.4091 346.161 30.4325 350.5 42.0042C362.5 74.0042 380 96.5042 414.5 105.004C393.372 113.153 375.524 96.1595 360.955 82.2881C351.39 73.1804 343.238 65.4188 336.5 67.0042C324.667 74.3375 315.3 97.2042 372.5 130.004C336.602 114.225 321.868 132.37 305.707 152.272C301.384 157.596 296.959 163.045 292 168.004C293.84 167.255 296.467 165.664 299.662 163.73C307.009 159.281 317.353 153.019 328 151.004C346.5 147.504 369.235 149.296 376.5 162.504C360.167 170.504 326.3 189.804 321.5 203.004C353.511 180.975 394.525 195.199 433.778 208.813C451.546 214.975 468.953 221.011 485 223.504C477.882 222.423 469.493 220.654 460.654 218.791C427.273 211.755 387.477 203.366 385.5 225.504C426.622 222.133 449.684 230.142 449.565 243.504C446.925 256.885 436.075 261.117 422.687 266.337C410.13 271.234 395.341 277.001 383 292.004C373.65 296.841 347.291 298.35 329.856 299.349C320.254 299.899 313.358 300.294 313.5 301.004C323.912 302.24 343.532 302.902 364.15 303.599C401.947 304.876 443.095 306.266 437 311.504C418.768 327.172 400.211 326.285 381.607 325.395C367.559 324.724 353.483 324.051 339.5 330.504C337.889 331.248 342.076 331.071 348.552 330.797C363.209 330.177 389.592 329.062 387 337.004C316.5 359.004 312 390.004 332 390.004C369.5 388.504 377.463 379.613 402.5 360.004C418.571 347.417 475.487 412.752 501.5 381.504C581 286.004 607 371.504 711.5 371.504C796.5 345.004 848.5 354.004 902 342.504L871 342.004C912 292.004 935 373.004 1015 323.004C1028.5 294.504 930.5 286.504 876.5 290.004C827.5 276.004 797.917 278.171 787.5 303.504C752.277 309.558 617 301.504 562 316.504C474 327.504 464.5 286.004 393 296.004C460 277.004 493.5 285.504 529.5 256.004C550.5 265.004 586.5 254.004 593.5 258.504C600.988 263.318 608 272.004 623 273.504C663.5 302.504 699.116 299.905 735 293.004C761 288.004 777.5 301.004 798.5 282.004C788.5 278.004 759.167 277.838 746 280.004C717.5 288.004 710.5 292.004 659.5 274.504C609.5 274.504 607 257.004 595 246.504C576.986 241.591 584 239.004 537 228.504C523.281 220.904 514 209.504 512 201.504C511.5 199.504 547.5 168.504 505 167.504C502.6 92.7041 460.667 95.3375 440 106.004Z" fill="#F4C78A"/>
</svg>
