<svg width="1003" height="252" viewBox="0 0 1003 252" fill="none" xmlns="http://www.w3.org/2000/svg">
<path d="M13 6.99998C9 5.39998 2.16667 1.66666 0 -7.62939e-06C8 15.5 42.6006 32.2733 86.5 54C143 83 230 125 307 153C522.5 211 727 261 858.5 250C890 247.667 956.8 243.7 972 246.5C980.167 245.667 997.7 243.6 1002.5 242C865 233 795.5 190.5 761 176.5C735 146.5 718.2 117.1 689 167.5C689 143 639.5 93.5 604.5 122.5C600 115 602.529 91.3799 601 83C585.5 31.5 450.61 -60.8013 388 59.5C361 -1.5 340.5 28 320.5 57C312.5 53.5 309.001 46.2018 305.5 42C290.5 24 277.5 31.5 243.5 66C241 69.5 231 61 228.5 57.5C226.5 54.7 217.333 46 213 42C209 38.5 196.8 34.6 180 47C163.2 59.4 150 55.8333 145.5 52.5C141.333 47.1667 123.1 34.5 83.5 26.5C34 16.5 18 8.99998 13 6.99998Z" fill="#F4C78A"/>
<path d="M302 85C251.5 98.5 203 77.5 126 73.5L177.5 99L232.5 123C270 121 301.819 127.719 310.5 133.5C309.5 143 310.93 146.338 319 148C347.8 143.2 354.5 151 363.5 154.5C381.9 148.9 389.5 156.5 399 161.5C410.5 157 418 164 425.5 162.5C442 147 433.5 137 465.5 141C445.5 170.5 461 165.5 479.5 167C514.5 189.5 512 177.5 522.5 177.5C548 196 545 184.5 569 201.5C580 195 622 201 612 201C604 201 599.667 209.333 598.5 213.5C606 215 622.5 207.5 627 213.5C630.073 217.598 646 218.167 653 218.5C672.5 232.5 671 210.5 679.5 214.5C684.5 217.5 683 230 709 227.5C749.5 242.5 743.5 238.5 753 248C782.5 252 845.5 252.5 880 248.5C810.5 222 810 228 802.5 223C790.5 207.5 774.695 195.423 767 196C778.05 210.734 771.333 220.333 767 223C755 210.5 734 207 724.5 209C750 175 723.5 183 717.5 196.5C706.3 187.7 689.167 187.833 682 189C673 152.5 649.5 157.833 639.5 165.5C616.5 128 579 155 576 144.5C587.5 89 553 76 508 64C526.4 80.4 530.5 98.5 530 105C479.5 60 433.5 93.5 424.5 97.5C431 67.5 459 60 457 52.5C408.5 40.5 404 103.5 398 108.5C393.504 112.247 385.333 107 383 108.5C371.8 116.5 366.667 113.5 365.5 111C360.3 100.2 351.333 101.5 347.5 103.5C329.9 111.1 323.5 105.667 322.5 102C322.9 84 309 83.1667 302 85Z" fill="#FFDF94"/>
</svg>
